#Comment line ignore any data following # character 
#Hierarchical Translation and Rotation (.htr) file 
[Header]	
#Header keywords are followed by a single value 
FileType HTR		#Single word string
DataType HTRS		#Translation followed by rotation and scale data
FileVersion 1		#integer
NumSegments 84		#integer
NumFrames 2		#integer
DataFrameRate 30		#integer, data frame rate in this file
EulerRotationOrder ZYX
CalibrationUnits mm
RotationUnits Degrees
GlobalAxisofGravity Y
BoneLengthAxis Y
ScaleFactor 1.00
[SegmentNames&Hierarchy]
#CHILD	PARENT
MASTER GLOBAL
root MASTER
chest root
L_mid_tent01 root
R_mid_tent01 root
spine01 root
Bip01_Neck chest
L_humerus chest
R_humerus chest
weapon_bone chest
Bip01_Head Bip01_Neck
eye_left_bone Bip01_Head
eye_right_bone Bip01_Head
L_forearm L_humerus
L_front_hand L_forearm
L_weapon_bone L_forearm
L_front_hand01_01 L_front_hand
L_front_hand02_01 L_front_hand
L_front_hand03_01 L_front_hand
L_front_hand01_02 L_front_hand01_01
L_front_hand02_02 L_front_hand02_01
L_front_hand03_02 L_front_hand03_01
R_forearm R_humerus
R_front_hand R_forearm
R_weapon_bone R_forearm
R_front_hand01_01 R_front_hand
R_front_hand02_01 R_front_hand
R_front_hand03_01 R_front_hand
R_front_hand01_02 R_front_hand01_01
R_front_hand02_02 R_front_hand02_01
R_front_hand03_02 R_front_hand03_01
null_rope01_connect L_mid_tent01
Rope1_Seg01 null_rope01_connect
Rope1_Seg02 Rope1_Seg01
Rope1_Seg03 Rope1_Seg02
Rope1_Seg04 Rope1_Seg03
Rope1_Seg05 Rope1_Seg04
Rope1_Seg06 Rope1_Seg05
Rope1_Seg07 Rope1_Seg06
Rope1_Seg09 Rope1_Seg07
L_mid_hand01 Rope1_Seg09
L_mid_hand02 Rope1_Seg09
L_mid_hand03 Rope1_Seg09
null_rope02_connect R_mid_tent01
Rope2_Seg01 null_rope02_connect
Rope2_Seg02 Rope2_Seg01
Rope2_Seg03 Rope2_Seg02
Rope2_Seg04 Rope2_Seg03
Rope2_Seg05 Rope2_Seg04
Rope2_Seg06 Rope2_Seg05
Rope2_Seg07 Rope2_Seg06
Rope2_Seg09 Rope2_Seg07
R_mid_hand01 Rope2_Seg09
R_mid_hand02 Rope2_Seg09
R_mid_hand03 Rope2_Seg09
spine02 spine01
spine03 spine02
pelvis spine03
null_rope03_connect pelvis
null_rope04_connect pelvis
Rope3_Seg01 null_rope03_connect
Rope3_Seg02 Rope3_Seg01
Rope3_Seg03 Rope3_Seg02
Rope3_Seg04 Rope3_Seg03
Rope3_Seg05 Rope3_Seg04
Rope3_Seg06 Rope3_Seg05
Rope3_Seg07 Rope3_Seg06
Rope3_Seg08 Rope3_Seg07
Rope3_Seg09 Rope3_Seg08
R_rear_hand01 Rope3_Seg09
R_rear_hand02 Rope3_Seg09
R_rear_hand03 Rope3_Seg09
Rope4_Seg01 null_rope04_connect
Rope4_Seg02 Rope4_Seg01
Rope4_Seg03 Rope4_Seg02
Rope4_Seg04 Rope4_Seg03
Rope4_Seg05 Rope4_Seg04
Rope4_Seg06 Rope4_Seg05
Rope4_Seg07 Rope4_Seg06
Rope4_Seg08 Rope4_Seg07
Rope4_Seg09 Rope4_Seg08
L_rear_hand01 Rope4_Seg09
L_rear_hand02 Rope4_Seg09
L_rear_hand03 Rope4_Seg09
[BasePosition]
#SegmentName Tx, Ty, Tz, Rx, Ry, Rz, BoneLength
MASTER 0.000000 0.000000 0.000000 -90.000000 0.000000 0.000000 10.000000 
root 0.000000 0.000000 0.000000 0.000000 0.000000 0.000000 10.000000 
chest 0.000000 0.000000 0.000000 0.000000 0.000000 0.000000 10.000000 
L_mid_tent01 0.000000 0.000000 0.000000 0.000000 0.000000 0.000000 10.000000 
R_mid_tent01 0.000000 0.000000 0.000000 0.000000 0.000000 0.000000 10.000000 
spine01 0.000000 0.000000 0.000000 0.000000 0.000000 0.000000 10.000000 
Bip01_Neck 0.000000 0.000000 0.000000 0.000000 0.000000 0.000000 10.000000 
L_humerus 0.000000 0.000000 0.000000 0.000000 0.000000 0.000000 10.000000 
R_humerus 0.000000 0.000000 0.000000 0.000000 0.000000 0.000000 10.000000 
weapon_bone 0.000000 0.000000 0.000000 0.000000 0.000000 0.000000 10.000000 
Bip01_Head 0.000000 0.000000 0.000000 0.000000 0.000000 0.000000 10.000000 
eye_left_bone 0.000000 0.000000 0.000000 0.000000 0.000000 0.000000 10.000000 
eye_right_bone 0.000000 0.000000 0.000000 0.000000 0.000000 0.000000 10.000000 
L_forearm 0.000000 0.000000 0.000000 0.000000 0.000000 0.000000 10.000000 
L_front_hand 0.000000 0.000000 0.000000 0.000000 0.000000 0.000000 10.000000 
L_weapon_bone 0.000000 0.000000 0.000000 0.000000 0.000000 0.000000 10.000000 
L_front_hand01_01 0.000000 0.000000 0.000000 0.000000 0.000000 0.000000 10.000000 
L_front_hand02_01 0.000000 0.000000 0.000000 0.000000 0.000000 0.000000 10.000000 
L_front_hand03_01 0.000000 0.000000 0.000000 0.000000 0.000000 0.000000 10.000000 
L_front_hand01_02 0.000000 0.000000 0.000000 0.000000 0.000000 0.000000 10.000000 
L_front_hand02_02 0.000000 0.000000 0.000000 0.000000 0.000000 0.000000 10.000000 
L_front_hand03_02 0.000000 0.000000 0.000000 0.000000 0.000000 0.000000 10.000000 
R_forearm 0.000000 0.000000 0.000000 0.000000 0.000000 0.000000 10.000000 
R_front_hand 0.000000 0.000000 0.000000 0.000000 0.000000 0.000000 10.000000 
R_weapon_bone 0.000000 0.000000 0.000000 0.000000 0.000000 0.000000 10.000000 
R_front_hand01_01 0.000000 0.000000 0.000000 0.000000 0.000000 0.000000 10.000000 
R_front_hand02_01 0.000000 0.000000 0.000000 0.000000 0.000000 0.000000 10.000000 
R_front_hand03_01 0.000000 0.000000 0.000000 0.000000 0.000000 0.000000 10.000000 
R_front_hand01_02 0.000000 0.000000 0.000000 0.000000 0.000000 0.000000 10.000000 
R_front_hand02_02 0.000000 0.000000 0.000000 0.000000 0.000000 0.000000 10.000000 
R_front_hand03_02 0.000000 0.000000 0.000000 0.000000 0.000000 0.000000 10.000000 
null_rope01_connect 0.000000 0.000000 0.000000 0.000000 0.000000 0.000000 10.000000 
Rope1_Seg01 0.000000 0.000000 0.000000 0.000000 0.000000 0.000000 10.000000 
Rope1_Seg02 0.000000 0.000000 0.000000 0.000000 0.000000 0.000000 10.000000 
Rope1_Seg03 0.000000 0.000000 0.000000 0.000000 0.000000 0.000000 10.000000 
Rope1_Seg04 0.000000 0.000000 0.000000 0.000000 0.000000 0.000000 10.000000 
Rope1_Seg05 0.000000 0.000000 0.000000 0.000000 0.000000 0.000000 10.000000 
Rope1_Seg06 0.000000 0.000000 0.000000 0.000000 0.000000 0.000000 10.000000 
Rope1_Seg07 0.000000 0.000000 0.000000 0.000000 0.000000 0.000000 10.000000 
Rope1_Seg09 0.000000 0.000000 0.000000 0.000000 0.000000 0.000000 10.000000 
L_mid_hand01 0.000000 0.000000 0.000000 0.000000 0.000000 0.000000 10.000000 
L_mid_hand02 0.000000 0.000000 0.000000 0.000000 0.000000 0.000000 10.000000 
L_mid_hand03 0.000000 0.000000 0.000000 0.000000 0.000000 0.000000 10.000000 
null_rope02_connect 0.000000 0.000000 0.000000 0.000000 0.000000 0.000000 10.000000 
Rope2_Seg01 0.000000 0.000000 0.000000 0.000000 0.000000 0.000000 10.000000 
Rope2_Seg02 0.000000 0.000000 0.000000 0.000000 0.000000 0.000000 10.000000 
Rope2_Seg03 0.000000 0.000000 0.000000 0.000000 0.000000 0.000000 10.000000 
Rope2_Seg04 0.000000 0.000000 0.000000 0.000000 0.000000 0.000000 10.000000 
Rope2_Seg05 0.000000 0.000000 0.000000 0.000000 0.000000 0.000000 10.000000 
Rope2_Seg06 0.000000 0.000000 0.000000 0.000000 0.000000 0.000000 10.000000 
Rope2_Seg07 0.000000 0.000000 0.000000 0.000000 0.000000 0.000000 10.000000 
Rope2_Seg09 0.000000 0.000000 0.000000 0.000000 0.000000 0.000000 10.000000 
R_mid_hand01 0.000000 0.000000 0.000000 0.000000 0.000000 0.000000 10.000000 
R_mid_hand02 0.000000 0.000000 0.000000 0.000000 0.000000 0.000000 10.000000 
R_mid_hand03 0.000000 0.000000 0.000000 0.000000 0.000000 0.000000 10.000000 
spine02 0.000000 0.000000 0.000000 0.000000 0.000000 0.000000 10.000000 
spine03 0.000000 0.000000 0.000000 0.000000 0.000000 0.000000 10.000000 
pelvis 0.000000 0.000000 0.000000 0.000000 0.000000 0.000000 10.000000 
null_rope03_connect 0.000000 0.000000 0.000000 0.000000 0.000000 0.000000 10.000000 
null_rope04_connect 0.000000 0.000000 0.000000 0.000000 0.000000 0.000000 10.000000 
Rope3_Seg01 0.000000 0.000000 0.000000 0.000000 0.000000 0.000000 10.000000 
Rope3_Seg02 0.000000 0.000000 0.000000 0.000000 0.000000 0.000000 10.000000 
Rope3_Seg03 0.000000 0.000000 0.000000 0.000000 0.000000 0.000000 10.000000 
Rope3_Seg04 0.000000 0.000000 0.000000 0.000000 0.000000 0.000000 10.000000 
Rope3_Seg05 0.000000 0.000000 0.000000 0.000000 0.000000 0.000000 10.000000 
Rope3_Seg06 0.000000 0.000000 0.000000 0.000000 0.000000 0.000000 10.000000 
Rope3_Seg07 0.000000 0.000000 0.000000 0.000000 0.000000 0.000000 10.000000 
Rope3_Seg08 0.000000 0.000000 0.000000 0.000000 0.000000 0.000000 10.000000 
Rope3_Seg09 0.000000 0.000000 0.000000 0.000000 0.000000 0.000000 10.000000 
R_rear_hand01 0.000000 0.000000 0.000000 0.000000 0.000000 0.000000 10.000000 
R_rear_hand02 0.000000 0.000000 0.000000 0.000000 0.000000 0.000000 10.000000 
R_rear_hand03 0.000000 0.000000 0.000000 0.000000 0.000000 0.000000 10.000000 
Rope4_Seg01 0.000000 0.000000 0.000000 0.000000 0.000000 0.000000 10.000000 
Rope4_Seg02 0.000000 0.000000 0.000000 0.000000 0.000000 0.000000 10.000000 
Rope4_Seg03 0.000000 0.000000 0.000000 0.000000 0.000000 0.000000 10.000000 
Rope4_Seg04 0.000000 0.000000 0.000000 0.000000 0.000000 0.000000 10.000000 
Rope4_Seg05 0.000000 0.000000 0.000000 0.000000 0.000000 0.000000 10.000000 
Rope4_Seg06 0.000000 0.000000 0.000000 0.000000 0.000000 0.000000 10.000000 
Rope4_Seg07 0.000000 0.000000 0.000000 0.000000 0.000000 0.000000 10.000000 
Rope4_Seg08 0.000000 0.000000 0.000000 0.000000 0.000000 0.000000 10.000000 
Rope4_Seg09 0.000000 0.000000 0.000000 0.000000 0.000000 0.000000 10.000000 
L_rear_hand01 0.000000 0.000000 0.000000 0.000000 0.000000 0.000000 10.000000 
L_rear_hand02 0.000000 0.000000 0.000000 0.000000 0.000000 0.000000 10.000000 
L_rear_hand03 0.000000 0.000000 0.000000 0.000000 0.000000 0.000000 10.000000 
#Beginning of Data. Separated by tabs
#Fr	Tx	Ty	Tz	Rx	Ry	Rz	SF
[MASTER]
12 -176.405563 1334.950073 1855.634155 0.001660 0.001660 0.001660 2292.725342
13 -163.679962 1674.196045 1869.778931 0.001660 0.001660 0.001660 2515.113770
[root]
12 61.163139 41.077423 923.184631 -89.441872 -6.995500 -94.098145 926.119934
13 45.935833 48.835892 858.451965 -91.366638 -7.073133 -92.963509 861.066101
[chest]
12 -84.512650 -34.090519 0.000000 6.988081 10.317098 151.404556 91.129311
13 -84.512650 -34.090519 0.000000 7.221534 10.912860 149.925171 91.129311
[L_mid_tent01]
12 27.299131 22.179079 -249.918701 -0.164462 19.995560 79.474480 252.381683
13 27.299131 22.179077 -249.918701 -0.118931 19.796282 79.976913 252.381683
[R_mid_tent01]
12 23.228794 24.509907 226.238495 166.562500 -22.986626 67.762650 228.744751
13 23.228794 24.509907 226.238495 163.727203 -24.201704 67.506516 228.744751
[spine01]
12 -0.361383 -0.195265 0.000000 -0.000001 -0.000007 22.052340 0.410763
13 -0.361383 -0.195265 0.000000 -0.000001 -0.000007 22.052340 0.410763
[Bip01_Neck]
12 165.484543 71.581718 0.000119 176.643677 -1.657967 43.431911 180.302734
13 165.484543 71.581718 0.000119 176.643677 -1.657967 43.431908 180.302734
[L_humerus]
12 -13.983130 -135.272980 -120.471481 94.289711 83.349342 -175.130554 181.680161
13 -13.983130 -135.272980 -120.471481 121.718208 81.390640 -147.498550 181.680161
[R_humerus]
12 -13.983309 -135.273102 125.287651 -172.760223 -61.976231 -92.104912 184.909012
13 -13.983309 -135.273102 125.287651 -173.269760 -56.687881 -91.495453 184.909012
[weapon_bone]
12 235.964890 -300.705902 0.000000 0.000000 -89.951546 -128.212341 382.234833
13 235.964890 -300.705902 0.000000 0.000000 -89.951546 -128.212341 382.234833
[Bip01_Head]
12 213.362869 185.942062 8.855896 4.962490 2.797846 -43.898743 283.154724
13 213.326721 186.042175 7.559130 4.962490 2.797846 -43.898743 283.155640
[eye_left_bone]
12 -24.626970 125.451866 -64.772606 0.000000 -90.000000 -99.840431 143.318359
13 -24.626970 125.451866 -64.772606 0.000000 -90.000000 -99.840431 143.318359
[eye_right_bone]
12 -24.626970 125.451866 64.327362 0.000000 -89.965736 80.156380 143.117676
13 -24.626970 125.451866 64.327362 0.000000 -89.965736 80.156380 143.117676
[L_forearm]
12 322.776093 0.000000 -0.000119 0.000406 -0.002312 -109.897934 322.776093
13 322.776093 0.000000 -0.000119 0.000406 -0.002312 -109.930145 322.776093
[L_front_hand]
12 241.149185 -0.042021 -3.300071 160.814545 -1.835190 -27.423120 241.171753
13 241.149185 -0.042021 -3.300071 136.107224 -1.837680 -27.424877 241.171753
[L_weapon_bone]
12 156.183838 0.000000 0.000000 0.000014 0.000007 0.000001 156.183838
13 156.183838 0.000000 0.000000 0.000014 0.000007 0.000001 156.183838
[L_front_hand01_01]
12 86.095154 20.947098 -0.655860 -0.274251 -0.532978 65.190620 88.609184
13 86.095154 20.947098 -0.655860 -0.281026 -0.528937 65.755089 88.609184
[L_front_hand02_01]
12 86.935165 -11.437475 24.513514 140.993607 -54.388721 -45.452248 91.046425
13 86.935165 -11.437475 24.513514 141.611877 -54.742973 -46.215725 91.046425
[L_front_hand03_01]
12 86.637497 -14.123976 -20.424902 -141.389969 52.619431 -47.524090 90.126129
13 86.637497 -14.123976 -20.424902 -141.973572 52.970398 -48.259937 90.126129
[L_front_hand01_02]
12 71.020905 -0.000179 0.000030 0.000315 -0.002326 -105.400543 71.020905
13 71.020905 -0.000179 0.000030 0.000312 -0.002326 -105.294807 71.020905
[L_front_hand02_02]
12 71.020927 -0.000119 0.000060 0.000315 -0.002326 -105.400543 71.020927
13 71.020927 -0.000119 0.000060 0.000312 -0.002326 -105.294807 71.020927
[L_front_hand03_02]
12 71.020905 -0.000060 0.000060 0.000315 -0.002326 -105.400543 71.020905
13 71.020905 -0.000060 0.000060 0.000312 -0.002326 -105.294807 71.020905
[R_forearm]
12 322.776428 -0.000060 0.000030 0.201755 0.066227 -108.669632 322.776428
13 322.776428 -0.000060 0.000030 0.201714 0.066350 -108.739662 322.776428
[R_front_hand]
12 238.847015 -0.006795 2.210259 27.735638 -10.645713 -26.314903 238.857239
13 238.847015 -0.006795 2.210259 65.494118 -10.644075 -26.314222 238.857239
[R_weapon_bone]
12 155.664093 0.002503 -0.000030 0.003487 0.001180 -90.988930 155.664078
13 155.664093 0.002503 -0.000030 0.003487 0.001180 -90.988930 155.664078
[R_front_hand01_01]
12 87.624611 14.231146 22.918642 -138.456909 -52.798630 42.405624 91.683487
13 87.624611 14.231146 22.918642 -139.165207 -53.267754 43.295242 91.683487
[R_front_hand02_01]
12 89.356956 14.367283 -19.491137 139.300415 51.240429 45.105949 92.579636
13 89.356956 14.367283 -19.491137 139.980438 51.699215 45.970734 92.579636
[R_front_hand03_01]
12 87.286232 -22.307278 -0.143439 0.064051 -0.451784 -62.968155 90.091743
13 87.286232 -22.307278 -0.143439 0.071045 -0.448771 -63.677063 90.091743
[R_front_hand01_02]
12 71.020905 0.000060 0.000119 0.002330 -0.000284 103.881416 71.020905
13 71.020905 0.000060 0.000119 0.002330 -0.000281 103.760513 71.020905
[R_front_hand02_02]
12 71.020844 -0.000030 -0.000119 0.002330 -0.000284 103.881416 71.020836
13 71.020844 -0.000030 -0.000119 0.002330 -0.000281 103.760513 71.020836
[R_front_hand03_02]
12 71.020905 0.000000 0.000030 0.002330 -0.000284 103.881416 71.020905
13 71.020905 0.000000 0.000030 0.002330 -0.000281 103.760513 71.020905
[null_rope01_connect]
12 328.732483 0.000000 -0.000238 -152.394958 -68.979660 169.198166 328.732483
13 328.732483 0.000000 -0.000238 -156.806641 -67.854446 173.396622 328.732483
[Rope1_Seg01]
12 0.000062 -0.000145 0.000000 -16.724197 0.027481 162.753311 0.000158
13 0.000061 -0.000155 0.000000 -22.899445 -16.354902 -179.893570 0.000166
[Rope1_Seg02]
12 139.999863 -0.000179 0.000000 -0.924290 11.888007 -10.256909 139.999863
13 139.999863 -0.000179 0.000000 -0.233635 17.728178 -13.404655 139.999863
[Rope1_Seg03]
12 139.999924 0.000060 -0.000060 -1.041815 9.819237 -9.171710 139.999924
13 139.999924 0.000060 -0.000060 -2.250683 17.221098 -15.088680 139.999924
[Rope1_Seg04]
12 139.999924 -0.000060 -0.000119 0.077863 4.066790 -5.664267 139.999924
13 139.999924 -0.000060 -0.000119 -0.835955 8.859382 -9.633351 139.999924
[Rope1_Seg05]
12 139.999832 0.000119 -0.000060 -2.756902 10.505685 -6.673816 139.999832
13 139.999832 0.000119 -0.000060 -3.102628 10.815799 -5.725934 139.999832
[Rope1_Seg06]
12 139.999954 0.000119 -0.000060 -15.385210 22.050518 -10.500395 139.999954
13 139.999954 0.000119 -0.000060 -15.261431 21.784187 -6.442151 139.999954
[Rope1_Seg07]
12 139.999985 0.000060 0.000000 -30.045288 18.268719 -3.763733 139.999985
13 139.999985 0.000060 0.000000 -30.663635 21.306126 -0.830540 139.999985
[Rope1_Seg09]
12 121.602913 0.000119 -0.000089 -89.793175 -1.359789 0.847147 121.602913
13 121.602913 0.000119 -0.000089 -89.793175 -1.359789 0.847147 121.602913
[L_mid_hand01]
12 103.859421 1.038730 8.195221 109.203865 -41.086700 -13.424594 104.187431
13 103.859421 1.038730 8.195221 109.630608 -42.428204 -14.062104 104.187431
[L_mid_hand02]
12 105.572853 -4.139662 -10.864139 -146.975464 31.757511 -38.401608 106.211075
13 105.572853 -4.139662 -10.864139 -147.734787 32.524982 -39.820675 106.211075
[L_mid_hand03]
12 104.641464 17.579376 -3.913581 -14.157615 12.442541 44.406353 106.179977
13 104.641464 17.579376 -3.913581 -13.849796 12.791805 45.822666 106.179977
[null_rope02_connect]
12 328.732849 0.000179 -0.000119 -124.928177 66.683929 22.507687 328.732849
13 328.732849 0.000179 -0.000119 -115.194145 64.523026 31.731161 328.732849
[Rope2_Seg01]
12 0.000095 0.000207 0.000000 121.775223 -37.542114 9.465715 0.000228
13 0.000095 0.000215 0.000000 128.240616 -49.607521 13.282489 0.000235
[Rope2_Seg02]
12 139.999741 -0.000060 -0.000119 -29.895674 -27.016563 -22.674044 139.999756
13 139.999741 -0.000060 -0.000119 -12.240600 -3.019135 -21.814737 139.999756
[Rope2_Seg03]
12 140.000107 0.000030 0.000000 -31.544567 -16.900787 -56.144695 140.000107
13 140.000107 0.000030 0.000000 -11.819638 -0.820225 -53.234612 140.000107
[Rope2_Seg04]
12 139.999802 0.000000 -0.000060 -1.816224 16.816536 -9.898210 139.999802
13 139.999802 0.000000 -0.000060 -2.747399 25.433332 -15.581019 139.999802
[Rope2_Seg05]
12 139.999985 -0.000060 0.000119 -1.841213 21.168018 -7.880584 139.999985
13 139.999985 -0.000060 0.000119 -1.778813 13.283577 -4.419252 139.999985
[Rope2_Seg06]
12 139.999893 -0.000030 -0.000119 -0.425306 11.318691 -5.509490 139.999893
13 139.999893 -0.000030 -0.000119 -0.072863 6.008525 -2.835283 139.999893
[Rope2_Seg07]
12 139.999893 0.000060 -0.000060 -0.021312 2.336092 -1.126643 139.999893
13 139.999893 0.000060 -0.000060 -0.011843 2.118508 -0.997774 139.999893
[Rope2_Seg09]
12 121.338966 0.000089 -0.000060 33.793236 -1.359788 -0.847141 121.338966
13 121.338966 0.000089 -0.000060 33.793236 -1.359788 -0.847141 121.338966
[R_mid_hand01]
12 104.680779 11.144459 -10.335981 -34.514381 34.853710 42.458721 105.778534
13 104.680779 11.144459 -10.335981 -35.659058 33.675755 40.429829 105.778534
[R_mid_hand02]
12 104.070427 2.443552 8.231699 68.611877 -47.139297 16.550779 104.424065
13 104.070427 2.443552 8.231699 69.379761 -45.224785 15.491559 104.424065
[R_mid_hand03]
12 106.028137 -11.221827 -5.996406 -171.008881 13.064262 -52.295349 106.788818
13 106.028137 -11.221827 -5.996406 -170.548004 12.734514 -50.222630 106.788818
[spine02]
12 129.756927 0.001550 0.000119 0.514745 -4.026942 -15.144247 129.756927
13 129.756927 0.001550 0.000119 0.521065 -4.026116 -15.254291 129.756927
[spine03]
12 78.614037 0.081663 -4.899002 1.987675 3.786005 17.859978 78.766571
13 78.614029 0.081666 -4.899002 1.993035 3.784391 17.923588 78.766563
[pelvis]
12 169.435242 0.051022 0.000000 -0.069781 -0.177953 16.913078 169.435257
13 169.435242 0.051022 0.000000 -0.069967 -0.177880 17.033100 169.435257
[null_rope03_connect]
12 -1.257226 -2.466202 137.391083 -65.409378 -85.571899 120.797813 137.418976
13 -1.257226 -2.466202 137.391083 -91.085678 -86.872002 146.402451 137.418976
[null_rope04_connect]
12 -1.259640 -2.480268 -137.844437 -65.409378 -85.571899 120.797813 137.872513
13 -1.259640 -2.480268 -137.844437 -91.085678 -86.872002 146.402451 137.872513
[Rope3_Seg01]
12 0.000000 0.000000 0.000000 12.386958 -34.792362 -64.405045 0.000000
13 0.000000 0.000000 0.000000 9.449056 -21.619043 -55.724068 0.000000
[Rope3_Seg02]
12 139.999924 -0.000119 0.000060 18.031956 33.380405 34.959496 139.999924
13 139.999924 -0.000119 0.000060 14.875587 26.968437 33.665813 139.999924
[Rope3_Seg03]
12 139.999924 -0.000119 0.000119 126.437325 42.908104 40.305664 139.999924
13 139.999924 -0.000119 0.000119 146.336517 32.370754 36.776558 139.999924
[Rope3_Seg04]
12 139.999924 0.000119 0.000000 14.093277 2.005334 -10.872391 139.999924
13 139.999924 0.000119 0.000000 9.908340 -2.832823 -13.077376 139.999924
[Rope3_Seg05]
12 139.999924 -0.000238 0.000060 1.427902 -2.156983 -4.750895 139.999924
13 139.999924 -0.000238 0.000060 -2.800883 -6.405906 -5.666076 139.999924
[Rope3_Seg06]
12 139.999893 -0.000119 -0.000060 1.691335 -2.366030 -5.318832 139.999893
13 139.999893 -0.000119 -0.000060 -0.008192 -4.357186 -5.597869 139.999893
[Rope3_Seg07]
12 139.999771 0.000060 -0.000119 1.996391 -1.833799 -5.206685 139.999771
13 139.999771 0.000060 -0.000119 0.620856 -2.959235 -4.418653 139.999771
[Rope3_Seg08]
12 139.999985 -0.000060 0.000000 1.379808 -1.448164 -3.711410 139.999985
13 139.999985 -0.000060 0.000000 0.584759 -1.952871 -2.857766 139.999985
[Rope3_Seg09]
12 90.185997 -0.000179 -0.000060 89.793228 -1.359877 -0.847183 90.185997
13 90.185997 -0.000179 -0.000060 89.793228 -1.359877 -0.847183 90.185997
[R_rear_hand01]
12 103.366196 -6.073594 -10.757982 -166.071487 20.559361 -44.173790 104.101845
13 103.366196 -6.073594 -10.757982 -165.364609 20.073742 -42.141056 104.101845
[R_rear_hand02]
12 100.509819 12.039542 -7.992327 -29.245224 26.638008 41.706211 101.543350
13 100.509819 12.039542 -7.992327 -30.084070 25.665682 39.802124 101.543350
[R_rear_hand03]
12 101.539970 5.215704 5.435467 81.983536 -44.720295 9.521895 101.819031
13 101.539970 5.215704 5.435467 82.244064 -42.772606 9.150358 101.819031
[Rope4_Seg01]
12 0.000010 0.000038 -0.000114 -80.241928 -36.586975 -136.625763 0.000121
13 0.000010 0.000038 -0.000114 -71.472046 -43.016094 -145.940460 0.000121
[Rope4_Seg02]
12 139.999985 0.000060 0.000119 0.857420 9.322536 2.642231 139.999985
13 139.999985 0.000060 0.000119 0.355359 11.357901 6.053593 139.999985
[Rope4_Seg03]
12 139.999924 0.000000 -0.000238 2.179487 13.801710 3.783798 139.999924
13 139.999924 0.000000 -0.000238 0.409072 16.809967 9.220792 139.999924
[Rope4_Seg04]
12 139.999985 0.000000 0.000119 5.450009 18.689350 5.320889 139.999985
13 139.999985 0.000000 0.000119 -4.422709 19.794220 12.290234 139.999985
[Rope4_Seg05]
12 139.999802 -0.000060 -0.000119 16.030415 17.994434 3.890795 139.999802
13 139.999802 -0.000060 -0.000119 -51.777969 12.573239 9.765411 139.999802
[Rope4_Seg06]
12 139.999924 0.000000 0.000060 65.093941 13.134577 -3.465292 139.999924
13 139.999924 0.000000 0.000060 -98.009834 1.401874 10.226785 139.999924
[Rope4_Seg07]
12 139.999802 0.000000 0.000000 38.026932 -0.131493 -12.849728 139.999802
13 139.999802 0.000000 0.000000 -18.865957 -12.329114 1.745157 139.999802
[Rope4_Seg08]
12 139.999924 0.000000 0.000119 8.373967 -5.183102 -7.466136 139.999924
13 139.999924 0.000000 0.000119 -5.323283 -11.764243 -2.640299 139.999924
[Rope4_Seg09]
12 90.185791 0.000060 0.000060 -135.617828 2.228885 0.850567 90.185791
13 90.185791 0.000060 0.000060 -135.617828 2.228885 0.850567 90.185791
[L_rear_hand01]
12 101.696655 -8.392275 -7.654577 -29.807377 -26.000988 139.554398 102.329041
13 101.696655 -8.392275 -7.654577 -28.796082 -27.129267 137.298477 102.329041
[L_rear_hand02]
12 102.726799 -1.568258 5.773216 82.157768 43.437939 170.726135 102.900848
13 102.726799 -1.568258 5.773216 81.840157 45.725384 170.277420 102.900848
[L_rear_hand03]
12 104.552910 9.721220 -10.420293 -165.604721 -20.244781 -137.169205 105.519653
13 104.552910 9.721220 -10.420293 -166.442245 -20.805418 -134.771164 105.519653
